<svg width="100" height="100" viewBox="0 0 100 100" fill="none" xmlns="http://www.w3.org/2000/svg">
<path fill-rule="evenodd" clip-rule="evenodd" d="M18.7707 50.6507V55.1973C18.36 55.4418 17.8638 55.63 17.282 55.762C16.7002 55.894 16.1062 55.96 15.5 55.96C14.6591 55.96 13.8989 55.828 13.2193 55.564C12.5398 55.3 11.9604 54.9382 11.4813 54.4787C11.0022 54.0191 10.6356 53.4715 10.3813 52.836C10.1271 52.2004 10 51.5062 10 50.7533C10 49.9027 10.1516 49.1278 10.4547 48.4287C10.7578 47.7295 11.166 47.1282 11.6793 46.6247C12.1927 46.1211 12.7891 45.73 13.4687 45.4513C14.1482 45.1727 14.8644 45.0333 15.6173 45.0333C15.8716 45.0333 16.138 45.0504 16.4167 45.0847C16.6953 45.1189 16.9716 45.1702 17.2453 45.2387C17.5191 45.3071 17.7831 45.3878 18.0373 45.4807C18.2916 45.5735 18.5213 45.6835 18.7267 45.8107L17.8467 47.2773C17.7098 47.1893 17.546 47.1135 17.3553 47.05C17.1647 46.9864 16.9667 46.9302 16.7613 46.8813C16.556 46.8324 16.3531 46.7958 16.1527 46.7713C15.9522 46.7469 15.764 46.7347 15.588 46.7347C15.0893 46.7347 14.6127 46.8349 14.158 47.0353C13.7033 47.2358 13.3 47.5071 12.948 47.8493C12.596 48.1915 12.3149 48.5998 12.1047 49.074C11.8944 49.5482 11.7893 50.0542 11.7893 50.592C11.7893 51.0809 11.8822 51.5453 12.068 51.9853C12.2538 52.4253 12.5129 52.814 12.8453 53.1513C13.1778 53.4887 13.5738 53.7575 14.0333 53.958C14.4929 54.1584 14.9964 54.2587 15.544 54.2587C15.7396 54.2587 15.984 54.2415 16.2773 54.2073C16.5707 54.1731 16.8493 54.112 17.1133 54.024V52.2053H15.1187V50.6507H18.7707ZM23.98 55.8427V45.1507H27.0013C27.588 45.1507 28.1233 45.2289 28.6073 45.3853C29.0913 45.5418 29.502 45.7667 29.8393 46.06C30.1767 46.3533 30.4382 46.7151 30.624 47.1453C30.8098 47.5755 30.9027 48.0595 30.9027 48.5973C30.9027 48.8907 30.8733 49.184 30.8147 49.4773C30.756 49.7707 30.6631 50.0542 30.536 50.328C30.4089 50.6018 30.2427 50.8535 30.0373 51.0833C29.832 51.3131 29.5876 51.5111 29.304 51.6773C29.5191 52.0195 29.7293 52.3544 29.9347 52.682C30.14 53.0095 30.3478 53.3395 30.558 53.672C30.7682 54.0044 30.9858 54.3467 31.2107 54.6987C31.4356 55.0507 31.68 55.432 31.944 55.8427H29.788C29.348 55.1582 28.9325 54.5104 28.5413 53.8993C28.1502 53.2882 27.7738 52.7089 27.412 52.1613H25.7693V55.8427H23.98ZM25.7693 50.4747H27.2067C27.5782 50.4747 27.8862 50.4111 28.1307 50.284C28.3751 50.1569 28.5707 50.0029 28.7173 49.822C28.864 49.6411 28.9667 49.4455 29.0253 49.2353C29.084 49.0251 29.1133 48.832 29.1133 48.656C29.1133 48.4898 29.0864 48.3015 29.0327 48.0913C28.9789 47.8811 28.8811 47.6831 28.7393 47.4973C28.5976 47.3115 28.4044 47.1551 28.16 47.028C27.9156 46.9009 27.6027 46.8373 27.2213 46.8373H25.7693V50.4747ZM43.0787 55.8427C43.0493 55.7742 42.998 55.652 42.9247 55.476C42.8513 55.3 42.7609 55.0849 42.6533 54.8307C42.5458 54.5764 42.4284 54.2953 42.3013 53.9873C42.1742 53.6793 42.0422 53.3591 41.9053 53.0267H38.224L37.0507 55.8427H35.276C35.3151 55.7547 35.408 55.5371 35.5547 55.19C35.7013 54.8429 35.8847 54.4127 36.1047 53.8993C36.3247 53.386 36.5691 52.814 36.838 52.1833C37.1069 51.5527 37.3831 50.9098 37.6667 50.2547C37.9502 49.5995 38.2264 48.9567 38.4953 48.326C38.7642 47.6953 39.0087 47.1233 39.2287 46.61C39.4487 46.0967 39.632 45.6664 39.7787 45.3193C39.9253 44.9722 40.0182 44.7547 40.0573 44.6667C40.0964 44.7547 40.1918 44.9722 40.3433 45.3193C40.4949 45.6664 40.6807 46.0967 40.9007 46.61C41.1207 47.1233 41.3651 47.6953 41.634 48.326C41.9029 48.9567 42.1791 49.5995 42.4627 50.2547C42.7462 50.9098 43.0224 51.5527 43.2913 52.1833C43.5602 52.814 43.8047 53.386 44.0247 53.8993C44.2447 54.4127 44.428 54.8429 44.5747 55.19C44.7213 55.5371 44.8142 55.7547 44.8533 55.8427H43.0787ZM38.84 51.516H41.2747L40.2187 48.964C40.2089 48.9542 40.1844 48.8882 40.1453 48.766C40.1062 48.6438 40.0769 48.5338 40.0573 48.436C40.0378 48.5338 40.0084 48.6438 39.9693 48.766C39.9302 48.8882 39.9107 48.9542 39.9107 48.964L38.84 51.516ZM49.2853 45.1507H51.0893V55.8427H49.2853V45.1507ZM56.7533 55.8427V45.1507H58.5427V54.1413H63.7347V55.8427H56.7533ZM68.3867 55.8427V45.1507H75.4853V46.7787H70.176V49.6533H74.8987V51.3253H70.176V54.1707H75.6907V55.8427H68.3867ZM80.6653 45.1507H83.4373C84.5129 45.1507 85.4247 45.3144 86.1727 45.642C86.9207 45.9695 87.5293 46.3924 87.9987 46.9107C88.468 47.4289 88.8078 48.018 89.018 48.678C89.2282 49.338 89.3333 49.9955 89.3333 50.6507C89.3333 51.4524 89.1891 52.1735 88.9007 52.814C88.6122 53.4544 88.2236 53.9995 87.7347 54.4493C87.2458 54.8991 86.6762 55.2438 86.026 55.4833C85.3758 55.7229 84.6889 55.8427 83.9653 55.8427H80.6653V45.1507ZM83.6867 54.1413C84.244 54.1413 84.7573 54.0631 85.2267 53.9067C85.696 53.7502 86.1018 53.518 86.444 53.21C86.7862 52.902 87.0527 52.5255 87.2433 52.0807C87.434 51.6358 87.5293 51.12 87.5293 50.5333C87.5293 49.8684 87.4145 49.3038 87.1847 48.8393C86.9549 48.3749 86.664 47.9984 86.312 47.71C85.96 47.4215 85.5689 47.2113 85.1387 47.0793C84.7085 46.9473 84.2978 46.8813 83.9067 46.8813H82.4693V54.1413H83.6867Z" fill="black"></path>
</svg>