<svg width="100" height="100" viewBox="0 0 100 100" fill="none" xmlns="http://www.w3.org/2000/svg">
<path fill-rule="evenodd" clip-rule="evenodd" d="M28.5522 35.3183C28.3826 35.3183 27.9479 35.578 26.8838 36.4396C26.4751 36.5824 26.1609 36.4549 25.6722 37.12C22.6457 41.2504 20.4925 54.3125 17.9325 58.9058C17.4313 58.7237 17.4833 48.7705 17.198 41.8762C17.2115 40.9668 17.3686 40.5633 17.3118 38.892C17.2636 37.4755 17.038 36.523 15.5537 36.1291C13.3118 35.5349 10.0607 36.5872 10.0163 38.821C9.89586 46.0076 10.4597 53.7806 11.9807 61.3438C12.3807 63.3285 14.2881 63.6553 16.3219 63.5575C22.8173 62.5063 23.8168 54.7188 25.6424 48.1619C26.3469 45.6252 28.0481 37.9116 28.8424 35.6921C28.8867 35.5675 28.7826 35.2867 28.5532 35.3183H28.5522ZM66.5195 41.5734C65.6857 40.4128 63.8467 40.293 62.3971 40.272C62.5204 39.0836 62.6486 37.8407 62.7682 36.5862C62.7903 36.3524 63.0033 35.6681 62.6419 35.0778C62.9956 34.2057 62.5609 34.0121 62.1253 33.8655C61.0313 33.4994 59.1277 33.4534 58.6506 34.8056C58.1253 36.3802 57.733 38.4559 57.5392 40.0899C56.5532 40.157 54.6188 40.2576 54.6139 40.6908C54.5927 42.2528 56.1387 42.8135 57.225 42.8336C56.9291 45.4671 56.5272 49.1385 56.186 52.4572C53.5094 56.0576 50.7537 59.2604 50.5021 58.739C50.0433 57.8152 51.5845 52.3144 50.4828 50.07C49.8872 48.8816 47.1363 48.5299 46.0375 48.9698C43.9277 49.8055 42.3045 53.1069 41.6144 54.163C41.8997 52.7543 42.4694 49.8936 42.6689 48.6622C42.8298 47.7815 41.6192 46.9017 40.7922 47.6492C39.8245 48.0019 38.6236 47.6492 38.3363 48.9698C38.0292 50.4865 37.7752 52.0135 37.5749 53.5478C35.7706 56.1813 32.8067 60.2388 31.9469 59.5201C31.0255 58.7371 32.9686 51.6388 33.0862 50.3488C33.6327 49.288 32.3595 47.9971 31.0149 47.9971C30.4587 47.9971 30.079 47.8131 29.6298 48.09C28.1455 48.965 26.9734 53.9895 27.1122 56.6163C27.2992 60.165 29.4708 60.903 30.3681 61.2259C32.9802 62.1699 35.2433 60.2168 37.1566 57.6954C37.1161 58.3816 37.0747 59.0198 37.1065 59.5757C37.1508 60.3375 37.9547 60.0155 38.8915 60.4113C39.8795 61.2834 40.5937 60.832 41.091 59.6638C42.4327 56.5138 43.6028 53.9867 46.0327 51.2142C46.9388 51.5295 44.9301 58.9595 46.2833 60.4554C49.0573 63.4598 53.2732 59.408 55.8159 56.186C55.7031 57.3935 55.5894 59.477 55.7609 60.6595C55.8159 61.0371 55.8573 61.2978 56.2072 61.5374C56.6641 61.752 57.4245 61.9399 57.6809 62.0875C58.2014 62.3031 58.1783 62.442 58.9291 62.3922C59.1961 62.374 59.5691 62.0999 59.6616 61.4799C60.6583 54.761 62.1195 42.9131 62.1195 42.9131C62.5869 42.8786 64.8906 42.5614 65.5142 42.5585C65.6433 42.4503 66.6226 41.7162 66.5204 41.5734H66.5195ZM82.9831 49.9396C78.1291 51.4308 77.0467 60.4439 78.32 59.6571C80.3498 58.4046 81.9913 55.336 82.9754 49.9971L82.9821 49.9396H82.9831ZM66.613 53.7471C70.3103 53.3868 70.8954 50.7379 70.8829 49.3215C69.0737 49.1337 67.2636 51.4423 66.613 53.7471ZM89.6337 37.3692C87.1903 50.8184 86.0867 61.2853 86.2457 63.1857C86.2361 63.4406 86.2708 63.9083 85.8862 63.9246C85.4043 63.915 83.6886 64.3616 82.7547 64.3491C82.1426 64.3405 81.6819 62.2485 81.9392 59.1511C80.4963 60.857 78.852 61.9475 77.5778 61.8163C75.8679 61.6409 75.1431 59.5354 75.0457 57.474C71.8534 61.1454 67.2578 62.2561 65.2135 60.8761C63.5624 59.7635 62.9889 57.8976 62.958 56.1151C62.8954 52.5913 66.4722 47.4834 70.559 47.4556L70.5898 47.4566L70.6525 47.4604C71.8467 47.5553 72.9821 49.6128 73.0814 50.9296C73.2761 53.5219 70.9388 56.7428 66.3633 55.5583C66.4067 57.0744 67.2019 58.2445 69.1739 58.1583C71.5884 58.0529 73.3339 56.303 75.4033 53.7672C75.4044 53.7624 75.4053 53.7576 75.4062 53.7528C76.5185 49.7988 79.4737 46.4599 83.5277 46.0632C83.9441 43.2323 84.2727 40.6093 85.1951 36.7894C85.3069 36.2 86.2081 35.8234 86.6824 35.9671C87.6192 35.1995 89.6086 34.75 89.7407 36.1933C89.7715 36.5287 89.6713 37.1334 89.6347 37.3701L89.6337 37.3692ZM30.5465 43.2965C30.5002 42.2212 32.8944 41.5044 33.6713 41.5044C34.8703 41.5044 35.0843 42.456 35.1325 43.5744C35.1749 44.571 34.1137 45.447 33.0168 45.447C31.1971 45.447 30.5474 43.3358 30.5465 43.2965Z" fill="#09B1BA"></path>
</svg>