<svg width="100" height="100" viewBox="0 0 100 100" fill="none" xmlns="http://www.w3.org/2000/svg">
<path d="M72.6567 28.3737L75 27.3925V27H57.4216V27.3925L60.1567 28.5699C62.8892 29.7473 63.4783 30.1398 63.4783 31.3173C63.4783 33.2796 61.5243 39.7555 61.1324 41.1292L55.273 59.3794L45.8973 33.6721C45.3135 31.906 45.1189 30.7285 45.1189 30.1398C45.1189 29.3549 45.5081 28.5699 47.8514 28.1774L50.1946 27.785V27H25V27.5887L25.7811 27.785C29.6865 28.5699 30.273 29.3549 34.3756 39.5593L41.1135 56.1415L47.8514 72.7237H51.3676L64.8433 39.5593C68.3595 31.5135 69.1431 30.1398 72.6567 28.3737Z" fill="#141A21"></path>
<ellipse cx="68.0922" cy="67.1316" rx="5.92105" ry="5.92105" fill="#141A21"></ellipse>
</svg>