<svg width="24" height="24" viewBox="0 0 24 24" fill="none" xmlns="http://www.w3.org/2000/svg">
<path d="M15.627 7.44238H8.23192C7.42084 7.44238 6.92944 8.00535 6.92944 8.73533C6.92944 8.95953 6.99625 9.19334 7.1155 9.40326L10.8178 15.8536C11.0659 16.2878 11.4905 16.5073 11.9295 16.5073C12.3684 16.5073 12.7978 16.2878 13.0411 15.8536L16.7434 9.40326C16.8722 9.18854 16.9294 8.95953 16.9294 8.73533C16.9294 8.00535 16.438 7.44238 15.627 7.44238Z" fill="#1D1A24"></path>
<path d="M15.627 7.44238H8.23192C7.42084 7.44238 6.92944 8.00535 6.92944 8.73533C6.92944 8.95953 6.99625 9.19334 7.1155 9.40326L10.8178 15.8536C11.0659 16.2878 11.4905 16.5073 11.9295 16.5073C12.3684 16.5073 12.7978 16.2878 13.0411 15.8536L16.7434 9.40326C16.8722 9.18854 16.9294 8.95953 16.9294 8.73533C16.9294 8.00535 16.438 7.44238 15.627 7.44238Z" fill="black" fill-opacity="0.2"></path>
<path d="M15.627 7.44238H8.23192C7.42084 7.44238 6.92944 8.00535 6.92944 8.73533C6.92944 8.95953 6.99625 9.19334 7.1155 9.40326L10.8178 15.8536C11.0659 16.2878 11.4905 16.5073 11.9295 16.5073C12.3684 16.5073 12.7978 16.2878 13.0411 15.8536L16.7434 9.40326C16.8722 9.18854 16.9294 8.95953 16.9294 8.73533C16.9294 8.00535 16.438 7.44238 15.627 7.44238Z" fill="black" fill-opacity="0.2"></path>
<path d="M15.627 7.44238H8.23192C7.42084 7.44238 6.92944 8.00535 6.92944 8.73533C6.92944 8.95953 6.99625 9.19334 7.1155 9.40326L10.8178 15.8536C11.0659 16.2878 11.4905 16.5073 11.9295 16.5073C12.3684 16.5073 12.7978 16.2878 13.0411 15.8536L16.7434 9.40326C16.8722 9.18854 16.9294 8.95953 16.9294 8.73533C16.9294 8.00535 16.438 7.44238 15.627 7.44238Z" fill="black" fill-opacity="0.2"></path>
<path d="M15.627 7.44238H8.23192C7.42084 7.44238 6.92944 8.00535 6.92944 8.73533C6.92944 8.95953 6.99625 9.19334 7.1155 9.40326L10.8178 15.8536C11.0659 16.2878 11.4905 16.5073 11.9295 16.5073C12.3684 16.5073 12.7978 16.2878 13.0411 15.8536L16.7434 9.40326C16.8722 9.18854 16.9294 8.95953 16.9294 8.73533C16.9294 8.00535 16.438 7.44238 15.627 7.44238Z" fill="black" fill-opacity="0.2"></path>
<path d="M15.627 7.44238H8.23192C7.42084 7.44238 6.92944 8.00535 6.92944 8.73533C6.92944 8.95953 6.99625 9.19334 7.1155 9.40326L10.8178 15.8536C11.0659 16.2878 11.4905 16.5073 11.9295 16.5073C12.3684 16.5073 12.7978 16.2878 13.0411 15.8536L16.7434 9.40326C16.8722 9.18854 16.9294 8.95953 16.9294 8.73533C16.9294 8.00535 16.438 7.44238 15.627 7.44238Z" fill="black" fill-opacity="0.2"></path>
</svg>