<svg xmlns="http://www.w3.org/2000/svg" width="20" height="22" viewBox="0 0 20 22" fill="none">
  <path d="M 14 8 C 14.552 8 15 8.448 15 9 C 15 10.326 14.473 11.597 13.535 12.535 C 12.656 13.414 11.484 13.933 10.248 13.994 L 10 14 C 8.674 14 7.403 13.473 6.465 12.535 C 5.527 11.597 5 10.326 5 9 C 5 8.448 5.448 8 6 8 C 6.552 8 7 8.448 7 9 C 7 9.796 7.316 10.558 7.879 11.121 C 8.442 11.684 9.204 12 10 12 L 10.297 11.985 C 10.984 11.917 11.629 11.613 12.121 11.121 C 12.684 10.558 13 9.796 13 9 C 13 8.448 13.448 8 14 8 Z" fill="currentColor" fill-rule="nonzero"/>
  <path d="M 16 0 C 16.315 0 16.611 0.149 16.8 0.4 L 19.8 4.4 C 19.801 4.402 19.802 4.405 19.804 4.407 C 19.893 4.529 19.956 4.67 19.983 4.825 C 19.985 4.836 19.987 4.846 19.988 4.856 C 19.995 4.903 20 4.951 20 5 L 20 19 C 20 19.796 19.684 20.558 19.121 21.121 C 18.558 21.684 17.796 22 17 22 L 3 22 C 2.204 22 1.442 21.684 0.879 21.121 C 0.316 20.558 0 19.796 0 19 L 0 5 C 0 4.951 0.004 4.903 0.011 4.856 C 0.012 4.846 0.014 4.836 0.016 4.825 C 0.043 4.671 0.106 4.529 0.195 4.407 C 0.197 4.405 0.199 4.403 0.2 4.4 L 3.2 0.4 L 3.275 0.311 C 3.463 0.113 3.725 0 4 0 L 16 0 Z M 2 19 C 2 19.265 2.105 19.519 2.293 19.707 C 2.481 19.895 2.735 20 3 20 L 17 20 C 17.265 20 17.519 19.895 17.707 19.707 C 17.895 19.519 18 19.265 18 19 L 18 6 L 2 6 L 2 19 Z M 2.999 4 L 17.001 4 L 15.501 2 L 4.499 2 L 2.999 4 Z" fill="currentColor" fill-rule="evenodd"/>
</svg>
