<svg xmlns="http://www.w3.org/2000/svg" width="22" height="22" viewBox="0 0 22 22" fill="none">
  <path d="M 19.443 0.545 L 19.444 0.547 C 19.445 0.548 19.445 0.55 19.445 0.551 C 19.447 0.554 19.449 0.558 19.451 0.563 C 19.456 0.573 19.464 0.588 19.474 0.606 C 19.493 0.644 19.52 0.7 19.555 0.77 C 19.624 0.91 19.722 1.113 19.84 1.362 C 20.075 1.862 20.389 2.556 20.703 3.33 C 21.017 4.102 21.336 4.968 21.578 5.809 C 21.816 6.635 22 7.503 22 8.259 C 22 9.307 21.673 10.221 21.07 10.895 C 20.843 11.149 20.583 11.36 20.301 11.527 C 20.315 13.315 20.393 15.404 20.436 17.179 C 20.459 18.143 20.471 19.02 20.453 19.682 C 20.444 20.009 20.427 20.312 20.395 20.556 C 20.379 20.675 20.355 20.813 20.315 20.944 C 20.292 21.022 20.206 21.319 19.94 21.543 C 19.793 21.668 19.643 21.72 19.601 21.735 C 19.535 21.758 19.476 21.772 19.435 21.781 C 19.35 21.8 19.261 21.814 19.182 21.823 C 19.019 21.843 18.811 21.859 18.576 21.873 C 18.101 21.902 17.453 21.926 16.695 21.944 C 15.178 21.982 13.185 22 11.187 22 C 9.187 22 7.173 21.982 5.612 21.944 C 4.833 21.926 4.159 21.903 3.653 21.874 C 3.402 21.86 3.181 21.843 3.006 21.824 C 2.919 21.815 2.831 21.804 2.751 21.79 C 2.693 21.78 2.56 21.756 2.426 21.699 C 2.156 21.585 2.002 21.392 1.928 21.28 C 1.848 21.161 1.8 21.043 1.77 20.957 C 1.709 20.785 1.672 20.597 1.647 20.43 C 1.596 20.086 1.568 19.646 1.553 19.17 C 1.522 18.208 1.543 16.969 1.582 15.758 C 1.621 14.542 1.681 13.337 1.729 12.437 C 1.748 12.102 1.764 11.809 1.778 11.573 C 1.465 11.399 1.178 11.172 0.93 10.895 C 0.327 10.221 0 9.307 0 8.259 C 0 7.503 0.184 6.635 0.422 5.809 C 0.664 4.968 0.983 4.102 1.297 3.33 C 1.611 2.556 1.925 1.862 2.16 1.362 C 2.278 1.113 2.376 0.91 2.445 0.77 C 2.48 0.7 2.507 0.644 2.526 0.606 C 2.536 0.588 2.544 0.573 2.549 0.563 C 2.551 0.558 2.553 0.554 2.555 0.551 C 2.555 0.55 2.555 0.548 2.556 0.547 L 2.557 0.546 L 2.835 0 L 19.165 0 L 19.443 0.545 Z M 10.962 17 C 10.381 17.005 10.016 17.295 9.919 17.635 C 9.777 18.134 9.717 18.743 9.698 19.26 C 9.689 19.511 9.69 19.728 9.693 19.88 C 9.694 19.923 9.695 19.96 9.696 19.992 C 10.189 19.994 10.688 20 11.187 20 C 11.557 20 11.926 19.995 12.292 19.994 C 12.294 19.957 12.298 19.91 12.3 19.854 C 12.306 19.701 12.31 19.484 12.304 19.233 C 12.29 18.715 12.23 18.129 12.08 17.677 C 11.947 17.276 11.533 16.995 10.962 17 Z M 7.188 9.834 C 6.265 11.14 5.022 11.88 3.758 11.983 C 3.748 12.153 3.738 12.341 3.727 12.545 C 3.678 13.437 3.62 14.626 3.581 15.822 C 3.542 17.023 3.524 18.211 3.552 19.107 C 3.561 19.407 3.576 19.66 3.595 19.863 C 3.648 19.867 3.706 19.873 3.767 19.877 C 4.24 19.904 4.889 19.927 5.66 19.945 C 6.275 19.96 6.964 19.971 7.695 19.979 C 7.695 19.961 7.695 19.942 7.694 19.922 C 7.691 19.74 7.689 19.484 7.7 19.188 C 7.721 18.608 7.789 17.813 7.996 17.087 C 8.408 15.641 9.772 15.01 10.946 15 C 12.13 14.99 13.498 15.603 13.978 17.045 C 14.221 17.776 14.287 18.593 14.303 19.182 C 14.311 19.485 14.305 19.747 14.298 19.935 C 14.297 19.951 14.296 19.968 14.295 19.983 C 15.151 19.974 15.951 19.962 16.646 19.945 C 17.389 19.927 18.004 19.903 18.442 19.877 C 18.446 19.801 18.451 19.718 18.453 19.627 C 18.47 19.022 18.459 18.191 18.436 17.228 C 18.397 15.639 18.328 13.704 18.306 11.988 C 17.025 11.906 15.761 11.168 14.823 9.851 C 14.587 10.437 14.2 10.919 13.713 11.282 C 12.922 11.871 11.922 12.115 10.981 12.098 C 10.04 12.081 9.056 11.8 8.281 11.215 C 7.813 10.861 7.428 10.396 7.188 9.834 Z M 9.558 2 C 9.487 2.503 9.393 3.19 9.3 3.948 C 9.107 5.518 8.923 7.337 8.923 8.5 C 8.923 8.991 9.133 9.351 9.487 9.619 C 9.867 9.906 10.421 10.087 11.018 10.098 C 11.615 10.108 12.155 9.948 12.519 9.678 C 12.85 9.431 13.077 9.067 13.077 8.5 C 13.077 7.44 12.892 5.623 12.699 4.022 C 12.604 3.238 12.509 2.522 12.438 2 L 9.558 2 Z M 3.97 2.213 C 3.746 2.69 3.448 3.35 3.15 4.082 C 2.852 4.816 2.56 5.612 2.344 6.362 C 2.123 7.127 2 7.783 2 8.259 C 2 8.886 2.19 9.305 2.42 9.562 C 2.65 9.819 2.973 9.975 3.354 9.997 C 4.1 10.041 5.257 9.543 6.035 7.843 C 6.506 6.814 6.925 5.104 7.231 3.573 C 7.349 2.988 7.445 2.445 7.521 2 L 4.072 2 C 4.041 2.066 4.005 2.137 3.97 2.213 Z M 14.479 2 C 14.555 2.445 14.651 2.988 14.769 3.573 C 15.075 5.104 15.494 6.814 15.965 7.843 C 16.743 9.543 17.9 10.041 18.646 9.997 C 19.027 9.975 19.35 9.819 19.58 9.562 C 19.81 9.305 20 8.886 20 8.259 C 20 7.783 19.877 7.127 19.656 6.362 C 19.44 5.612 19.148 4.816 18.85 4.082 C 18.552 3.35 18.254 2.69 18.03 2.213 C 17.995 2.137 17.959 2.066 17.928 2 L 14.479 2 Z" fill="currentColor" fill-rule="evenodd"/>
</svg>
